<?xml version="1.0" encoding="UTF-8"?>
<!DOCTYPE svg
  PUBLIC '-//W3C//DTD SVG 1.1//EN'
  'http://www.w3.org/Graphics/SVG/1.1/DTD/svg11.dtd'>
<svg version="1.1" xmlns="http://www.w3.org/2000/svg" width="35.300mm" height="18.764mm">
    <!--Autogenerated with python-barcode 0.16.1-->
    <g id="barcode_group">
        <rect width="100%" height="100%" style="fill:white"/>
        <rect x="2.500mm" y="1.000mm" width="0.600mm" height="12.000mm" style="fill:black;"/>
        <rect x="3.400mm" y="1.000mm" width="0.300mm" height="12.000mm" style="fill:black;"/>
        <rect x="4.300mm" y="1.000mm" width="0.900mm" height="12.000mm" style="fill:black;"/>
        <rect x="5.800mm" y="1.000mm" width="0.900mm" height="12.000mm" style="fill:black;"/>
        <rect x="7.000mm" y="1.000mm" width="1.200mm" height="12.000mm" style="fill:black;"/>
        <rect x="8.500mm" y="1.000mm" width="0.300mm" height="12.000mm" style="fill:black;"/>
        <rect x="9.100mm" y="1.000mm" width="0.600mm" height="12.000mm" style="fill:black;"/>
        <rect x="10.900mm" y="1.000mm" width="0.300mm" height="12.000mm" style="fill:black;"/>
        <rect x="11.500mm" y="1.000mm" width="0.300mm" height="12.000mm" style="fill:black;"/>
        <rect x="12.400mm" y="1.000mm" width="0.300mm" height="12.000mm" style="fill:black;"/>
        <rect x="13.000mm" y="1.000mm" width="0.900mm" height="12.000mm" style="fill:black;"/>
        <rect x="14.200mm" y="1.000mm" width="0.600mm" height="12.000mm" style="fill:black;"/>
        <rect x="15.700mm" y="1.000mm" width="0.300mm" height="12.000mm" style="fill:black;"/>
        <rect x="16.300mm" y="1.000mm" width="0.900mm" height="12.000mm" style="fill:black;"/>
        <rect x="17.500mm" y="1.000mm" width="1.200mm" height="12.000mm" style="fill:black;"/>
        <rect x="19.000mm" y="1.000mm" width="0.300mm" height="12.000mm" style="fill:black;"/>
        <rect x="19.600mm" y="1.000mm" width="0.900mm" height="12.000mm" style="fill:black;"/>
        <rect x="20.800mm" y="1.000mm" width="1.200mm" height="12.000mm" style="fill:black;"/>
        <rect x="22.300mm" y="1.000mm" width="0.300mm" height="12.000mm" style="fill:black;"/>
        <rect x="22.900mm" y="1.000mm" width="0.900mm" height="12.000mm" style="fill:black;"/>
        <rect x="24.100mm" y="1.000mm" width="1.200mm" height="12.000mm" style="fill:black;"/>
        <rect x="25.600mm" y="1.000mm" width="1.200mm" height="12.000mm" style="fill:black;"/>
        <rect x="27.400mm" y="1.000mm" width="0.300mm" height="12.000mm" style="fill:black;"/>
        <rect x="28.000mm" y="1.000mm" width="0.300mm" height="12.000mm" style="fill:black;"/>
        <rect x="28.900mm" y="1.000mm" width="0.600mm" height="12.000mm" style="fill:black;"/>
        <rect x="30.400mm" y="1.000mm" width="0.900mm" height="12.000mm" style="fill:black;"/>
        <rect x="31.600mm" y="1.000mm" width="0.300mm" height="12.000mm" style="fill:black;"/>
        <rect x="32.200mm" y="1.000mm" width="0.600mm" height="12.000mm" style="fill:black;"/>
        <text x="17.650mm" y="16.000mm" style="fill:black;font-size:10pt;text-anchor:middle;">607845999999</text>
    </g>
</svg>
